<?xml version="1.0" encoding="UTF-8" standalone="no"?><!DOCTYPE svg PUBLIC "-//W3C//DTD SVG 1.1//EN" "http://www.w3.org/Graphics/SVG/1.1/DTD/svg11.dtd"><svg width="100%" height="100%" viewBox="0 0 3544 3544" version="1.1" xmlns="http://www.w3.org/2000/svg" xmlns:xlink="http://www.w3.org/1999/xlink" xml:space="preserve" xmlns:serif="http://www.serif.com/" style="fill-rule:evenodd;clip-rule:evenodd;stroke-linecap:round;stroke-linejoin:round;stroke-miterlimit:10;"><g><ellipse cx="1771.65" cy="1655.21" rx="1559.9" ry="1549.63" style="fill:#fb8629;"/><g id="Logo"><path d="M2286.95,998.801l815.843,2268.33l-1223.96,-0l-0,-2268.33l408.122,0Z" style="fill:#f2f2f2;stroke:#383838;stroke-width:4.17px;"/><path d="M1239.67,998.801l-815.843,2268.33l1223.96,-0l0,-2268.33l-408.122,0Z" style="fill:#fff;stroke:#383838;stroke-width:4.17px;"/><rect x="1488.62" y="1147.01" width="530.786" height="2120.11" style="fill:#f7f9ff;"/><path d="M1771.65,998.801l408.122,0l815.843,2268.33l-1116.79,-0l-0,-524.693l-107.177,-0l-0,-1039.52l107.177,-0l-85.196,-531.358l-21.981,-0l-0,-172.76Z" style="fill:#383838;stroke:#383838;stroke-width:4.17px;"/><path d="M1771.65,998.801l-408.121,0l-815.845,2268.33l1116.79,-0l0,-524.693l107.178,-0l-0,-1039.52l-107.178,-0l85.196,-531.358l21.982,-0l-0,-172.76Z" style="fill:#383838;stroke:#383838;stroke-width:4.17px;"/></g><path id="text2" d="M2417.49,3136.52c-0,6.778 -2.099,12.351 -6.296,16.718c-4.053,4.217 -9.337,6.326 -15.85,6.326c-6.658,0 -12.014,-2.109 -16.067,-6.326c-4.053,-4.367 -6.079,-9.94 -6.079,-16.718c-0,-6.777 2.026,-12.35 6.079,-16.717c4.053,-4.368 9.409,-6.552 16.067,-6.552c6.513,-0 11.797,2.184 15.85,6.552c4.197,4.367 6.296,9.94 6.296,16.717Zm-1668.13,62.353c0,6.929 -2.098,12.577 -6.296,16.944c-4.053,4.217 -9.408,6.326 -16.067,6.326c-6.513,0 -11.869,-2.109 -16.067,-6.326c-4.052,-4.367 -6.079,-10.015 -6.079,-16.944c0,-6.777 2.027,-12.274 6.079,-16.491c4.198,-4.368 9.554,-6.552 16.067,-6.552c6.659,-0 12.014,2.184 16.067,6.552c4.198,4.217 6.296,9.714 6.296,16.491Z" style="fill:#ebebeb;fill-rule:nonzero;"/><path id="text21" serif:id="text2" d="M794.794,3294.39c0.016,-1.006 0.048,-1.951 0.095,-2.833c0.435,-8.284 1.954,-15.212 4.56,-20.785c3.763,-7.982 8.974,-13.479 15.632,-16.492l36.042,-17.169l0,55.786c-16.743,0.908 -43.409,1.33 -56.329,1.493Z" style="fill:#fff;"/><path id="text22" serif:id="text2" d="M851.123,3301.69c-14.103,0.697 -25.797,1.174 -54.093,2.542c28.296,-1.368 39.99,-1.845 54.093,-2.542l0,43.175c0,25.152 -8.902,46.916 -26.705,65.29c-17.804,18.375 -38.792,27.562 -62.965,27.562c-23.304,0 -43.496,-6.853 -60.576,-20.558c-18.528,-14.76 -27.791,-33.888 -27.791,-57.383c-0,-29.52 9.046,-47.895 27.139,-55.124l4.777,37.954c2.605,14.459 6.875,25.303 12.81,32.532c7.382,9.187 18.383,13.781 33.002,13.781c12.738,0 23.594,-3.991 32.568,-11.973c9.119,-7.983 13.679,-20.71 13.679,-38.18c-0,-4.368 -0.435,-12.351 -1.303,-23.948c-0.727,-8.448 -1.049,-15.26 -0.964,-20.436c12.92,-0.163 39.586,-0.585 56.329,-1.493l0,8.801Z" style="fill:#fff;"/><path id="text23" serif:id="text2" d="M2709.99,3291.31l0,-201.73c0,-12.2 4.921,-22.742 14.764,-31.628c9.988,-7.079 19.903,-14.158 29.746,-21.237l-0,248.61l-38.047,-0.525l38.047,0.525l-0,3.74c-10.936,0.552 -25.393,1.28 -44.51,2.245Z" style="fill:#ebebeb;"/><path id="text24" serif:id="text2" d="M2754.5,3289.07l-0,55.801l-44.51,0l0,-53.556c19.117,-0.965 33.574,-1.693 44.51,-2.245Z" style="fill:#fff;"/><path id="text25" serif:id="text2" d="M2598.83,3285.45l0,-196.999c0,-12.802 4.632,-23.269 13.896,-31.402c10.132,-6.778 20.337,-13.555 30.614,-20.333l-0,247.997c-14.832,0.447 -28.896,0.628 -44.51,0.737Z" style="fill:#ebebeb;"/><path id="text26" serif:id="text2" d="M2643.34,3284.72l-0,37.111c-0,6.325 -2.172,11.747 -6.514,16.266c-4.342,4.518 -9.553,6.777 -15.633,6.777l-57.97,0l-0.009,-54.22l35.616,0l0,-5.197c15.614,-0.109 29.678,-0.29 44.51,-0.737Z" style="fill:#fff;"/><path id="text27" serif:id="text2" d="M2532.17,3290.65l31.039,0l0.009,54.22l-62.096,0l31.048,-54.22Z" style="fill:#fff;"/><path id="text28" serif:id="text2" d="M2376.49,3290.65l31.266,0l-0,54.22l-62.314,0l31.048,-54.22Z" style="fill:#fff;"/><path id="text29" serif:id="text2" d="M2309.41,3289.68l-0,-252.96c9.987,6.627 19.902,13.254 29.745,19.881c9.843,8.434 14.764,18.6 14.764,30.499l-0,201.438l-44.509,1.142Z" style="fill:#ebebeb;"/><path id="text210" serif:id="text2" d="M2353.91,3288.54l-0,0.818c-12.685,0.545 -26.904,1.205 -42.863,2c15.959,-0.795 30.178,-1.455 42.863,-2l-0,1.295l22.58,0l-31.048,54.22l-36.041,0l-0,-55.191l44.509,-1.142Z" style="fill:#fff;"/><path id="text211" serif:id="text2" d="M2532.16,3285.87l0,4.78l0.009,0l-31.048,54.22l-93.361,0l-0,-54.22l79.899,0l-0.154,-4.197c16.675,-0.275 31.405,-0.457 44.655,-0.583Z" style="fill:#fff;"/><path id="text212" serif:id="text2" d="M2487.51,3286.45l-0.071,-1.903c-0.15,-10.392 0.212,-17.019 1.085,-19.88c1.448,-4.669 5.718,-9.413 12.81,-14.233l30.831,-20.333l0,55.766c-13.25,0.126 -27.98,0.308 -44.655,0.583Z" style="fill:#ebebeb;"/><path id="text213" serif:id="text2" d="M2199.31,3284.33l0,-46.769c0,-10.694 3.402,-17.773 10.205,-21.237l33.653,-17.621l0.011,84.449c-17.198,0.324 -31.43,0.73 -43.869,1.178Z" style="fill:#ebebeb;"/><path id="text214" serif:id="text2" d="M2035.62,3291.33c0.289,-8.284 1.737,-15.137 4.342,-20.559c3.908,-7.982 11.29,-14.91 22.146,-20.784c9.409,-4.217 18.817,-8.509 28.226,-12.877l-0,51.574c-14.762,0.282 -32.044,0.45 -53.343,0.45c21.299,0 38.581,-0.168 53.343,-0.45l-0,1.968l-54.714,0.678Z" style="fill:#ebebeb;"/><path id="text215" serif:id="text2" d="M2123.11,3287.76c-0.022,-4.72 -0.094,-10.006 -0.219,-15.858c-0.15,-7.079 -0.225,-11.672 -0.225,-13.781c0,-11.145 2.461,-18.751 7.382,-22.818c1.593,-1.205 13.968,-7.832 37.128,-19.88l-0,70.29c-14.867,0.723 -28.296,1.45 -44.066,2.047Z" style="fill:#ebebeb;"/><path id="text216" serif:id="text2" d="M2243.18,3283.15l0.005,39.579c0,14.76 -8.25,22.14 -24.751,22.14l-128.535,0c0.29,25.002 -8.323,46.69 -25.837,65.064c-17.37,18.526 -38.068,27.788 -62.096,27.788c-23.304,0 -43.424,-6.853 -60.359,-20.558c-18.528,-14.911 -27.791,-34.038 -27.791,-57.383c-0,-29.369 9.046,-47.744 27.139,-55.124l4.777,37.954c2.606,14.459 6.803,25.303 12.593,32.532c7.527,9.187 18.527,13.781 33.002,13.781c12.882,0 23.811,-3.991 32.785,-11.973c8.974,-7.832 13.461,-20.634 13.461,-38.406c0,-4.368 -0.434,-12.351 -1.303,-23.948c-0.723,-10.241 -0.94,-17.998 -0.65,-23.269l54.714,-0.678l32.785,0c-0,-0.939 -0.003,-1.904 -0.007,-2.893c15.77,-0.597 29.199,-1.324 44.066,-2.047l-0,4.94l32.133,0l0,-6.321c12.439,-0.448 26.671,-0.854 43.869,-1.178Z" style="fill:#fff;"/><path id="text217" serif:id="text2" d="M1139.67,3298.68l0,-261.962c9.988,6.627 19.903,13.254 29.746,19.881c9.842,8.434 14.764,18.6 14.764,30.499l-0,203.551l22.58,0l-1.541,2.692c-26.049,2.494 -34.848,3.229 -65.549,5.339Zm7.576,-5.166c4.653,-0.378 9.371,0.378 14.024,0c2.014,-0.163 1.857,-0.21 25.065,-2.838c-23.208,2.628 -23.051,2.675 -25.065,2.838c-4.653,0.378 -9.371,-0.378 -14.024,0Z" style="fill:#ebebeb;"/><path id="text218" serif:id="text2" d="M1205.22,3293.34l-29.507,51.528l-36.042,0l0,-46.189c30.701,-2.11 39.5,-2.845 65.549,-5.339Z" style="fill:#fff;"/><path id="text219" serif:id="text2" d="M1662.71,3171.82l0,117.096c-66.205,-2.806 -71.453,-0.881 -138.257,-0.703c0.85,-29.032 11.908,-53.145 33.171,-72.34c8.106,-7.379 22.002,-11.672 41.687,-12.877c8.274,-0.488 15.513,-1.373 21.718,-2.654m-9.559,42.19c-4.198,-0.904 -7.744,-1.356 -10.639,-1.356c-8.974,-0 -17.08,3.765 -24.317,11.296c-7.237,7.53 -10.856,15.965 -10.856,25.302c-0,2.41 0.29,5.197 0.869,8.359l44.943,0.001l-0,-43.602m9.559,-42.19c9.099,-1.878 15.973,-4.608 20.621,-8.19c7.092,-5.422 14.112,-12.199 21.06,-20.332" style="fill:#ebebeb;"/><path id="text220" serif:id="text2" d="M1662.71,3294.26c-11.541,-0.469 -37.502,-1.46 -144.021,-2.635c106.519,1.175 132.48,2.166 144.021,2.635l0,50.605l-224.718,0l-0,-54.22l86.413,0c0.008,-0.817 0.024,-1.63 0.048,-2.439c66.804,-0.178 72.052,-2.103 138.257,0.703l0,5.351Z" style="fill:#fff;"/><path id="text221" serif:id="text2" d="M1406.95,3290.65l31.048,-0l-0,54.22l-62.096,0l31.048,-54.22Z" style="fill:#fff;"/><path id="text222" serif:id="text2" d="M1342.8,3288.3c3.116,1.568 6.261,2.353 9.435,2.353l54.714,-0l-31.048,54.22l-137.871,0l0,-54.22l49.286,0c-0.318,-0.658 -0.632,-1.31 -0.941,-1.958c22.915,-0.151 41.408,-0.291 56.425,-0.395Z" style="fill:#fff;"/><path id="text223" serif:id="text2" d="M1286.37,3288.69c-10.084,-21.13 -15.125,-36.517 -15.125,-46.162c-0,-14.158 4.776,-25.83 14.329,-35.017c9.264,-8.736 20.771,-13.103 34.522,-13.103c3.908,-0 9.771,0.225 17.587,0.676c7.816,0.302 13.678,0.452 17.586,0.452c22.87,0 35.753,-2.183 38.648,-6.551l13.027,-19.429l-0,79.071l-78.814,-0c-4.487,-0 -6.731,2.485 -6.731,7.455c-0,7.38 3.329,14.986 9.987,22.818c3.759,4.327 7.562,7.459 11.409,9.395c-15.017,0.104 -33.51,0.244 -56.425,0.395Z" style="fill:#ebebeb;"/><path id="text224" serif:id="text2" d="M1206.76,3290.65l31.265,0l0,54.22l-62.313,0l31.048,-54.22Z" style="fill:#fff;"/><path id="text225" serif:id="text2" d="M1028.94,3289.63l-0,-27.673c-0,-4.217 -2.172,-8.058 -6.514,-11.522c-4.198,-3.615 -8.395,-5.422 -12.593,-5.422l-87.499,-0l0,-70.034c3.329,6.024 8.251,11.371 14.764,16.04c7.093,5.121 13.679,7.681 19.758,7.681l72.084,-0c13.027,-0 23.666,4.292 31.916,12.877c8.395,8.585 12.593,19.052 12.593,31.403l0,48.175c-14.306,-1.502 -14.251,-1.577 -15.59,-1.631c-9.628,-0.386 -19.284,0.248 -28.919,0.106Z" style="fill:#ebebeb;"/><path id="text226" serif:id="text2" d="M1073.45,3291.16l0,30.67c0,6.476 -2.026,11.973 -6.079,16.492c-3.909,4.367 -8.975,6.551 -15.199,6.551l-154.805,0l-0,-54.22l131.574,0l-0,-1.018c9.635,0.142 19.291,-0.492 28.919,-0.106c1.339,0.054 1.284,0.129 15.59,1.631Z" style="fill:#fff;"/><path id="text227" serif:id="text2" d="M2417.49,3135.61c-0,6.777 -2.099,12.35 -6.296,16.717c-4.053,4.218 -9.337,6.326 -15.85,6.326c-6.658,0 -12.014,-2.108 -16.067,-6.326c-4.053,-4.367 -6.079,-9.94 -6.079,-16.717c-0,-6.778 2.026,-12.35 6.079,-16.718c4.053,-4.368 9.409,-6.552 16.067,-6.552c6.513,0 11.797,2.184 15.85,6.552c4.197,4.368 6.296,9.94 6.296,16.718Zm-1668.13,62.353c0,6.928 -2.098,12.576 -6.296,16.944c-4.053,4.217 -9.408,6.325 -16.067,6.325c-6.513,0 -11.869,-2.108 -16.067,-6.325c-4.052,-4.368 -6.079,-10.016 -6.079,-16.944c0,-6.778 2.027,-12.275 6.079,-16.492c4.198,-4.368 9.554,-6.552 16.067,-6.552c6.659,0 12.014,2.184 16.067,6.552c4.198,4.217 6.296,9.714 6.296,16.492Z" style="fill:#ebebeb;fill-rule:nonzero;"/><path id="text228" serif:id="text2" d="M794.794,3279.84c0.016,-1.006 0.048,-1.95 0.095,-2.832c0.435,-8.284 1.954,-15.212 4.56,-20.785c3.763,-7.982 8.974,-13.48 15.632,-16.492l36.042,-17.169l0,55.785c-16.743,0.908 -43.409,1.331 -56.329,1.493Z" style="fill:#fff;"/><path id="text229" serif:id="text2" d="M851.123,3287.15c-14.103,0.696 -25.797,1.174 -54.093,2.541c28.296,-1.367 39.99,-1.845 54.093,-2.541l0,43.175c0,25.152 -8.902,46.915 -26.705,65.29c-17.804,18.375 -38.792,27.562 -62.965,27.562c-23.304,-0 -43.496,-6.853 -60.576,-20.558c-18.528,-14.76 -27.791,-33.888 -27.791,-57.383c-0,-29.52 9.046,-47.895 27.139,-55.124l4.777,37.954c2.605,14.459 6.875,25.303 12.81,32.532c7.382,9.187 18.383,13.781 33.002,13.781c12.738,-0 23.594,-3.991 32.568,-11.974c9.119,-7.982 13.679,-20.709 13.679,-38.18c-0,-4.368 -0.435,-12.35 -1.303,-23.947c-0.727,-8.449 -1.049,-15.261 -0.964,-20.437c12.92,-0.162 39.586,-0.585 56.329,-1.493l0,8.802Z" style="fill:#383838;"/><path id="text230" serif:id="text2" d="M2709.99,3276.76l0,-201.729c0,-12.2 4.921,-22.743 14.764,-31.629c9.988,-7.079 19.903,-14.157 29.746,-21.236l-0,248.61l-38.047,-0.525l38.047,0.525l-0,3.74c-10.936,0.551 -25.393,1.28 -44.51,2.244Z" style="fill:#ebebeb;"/><path id="text231" serif:id="text2" d="M2754.5,3274.52l-0,55.801l-44.51,0l0,-53.557c19.117,-0.964 33.574,-1.693 44.51,-2.244Z" style="fill:#383838;"/><path id="text232" serif:id="text2" d="M2598.83,3270.9l0,-196.999c0,-12.802 4.632,-23.27 13.896,-31.403c10.132,-6.777 20.337,-13.555 30.614,-20.332l-0,247.997c-14.832,0.447 -28.896,0.628 -44.51,0.737Z" style="fill:#ebebeb;"/><path id="text233" serif:id="text2" d="M2643.34,3270.17l-0,37.11c-0,6.326 -2.172,11.748 -6.514,16.267c-4.342,4.518 -9.553,6.777 -15.633,6.777l-57.97,0l-0.009,-54.22l35.616,-0l0,-5.197c15.614,-0.109 29.678,-0.29 44.51,-0.737Z" style="fill:#383838;"/><path id="text234" serif:id="text2" d="M2532.17,3276.1l31.039,-0l0.009,54.22l-62.096,0l31.048,-54.22Z" style="fill:#383838;"/><path id="text235" serif:id="text2" d="M2376.49,3276.1l31.266,-0l-0,54.22l-62.314,0l31.048,-54.22Z" style="fill:#383838;"/><path id="text236" serif:id="text2" d="M2309.41,3275.13l-0,-252.96c9.987,6.627 19.902,13.254 29.745,19.881c9.843,8.434 14.764,18.6 14.764,30.499l-0,201.438l-44.509,1.142Z" style="fill:#ebebeb;"/><path id="text237" serif:id="text2" d="M2353.91,3273.99l-0,0.818c-12.685,0.545 -26.904,1.205 -42.863,2c15.959,-0.795 30.178,-1.455 42.863,-2l-0,1.295l22.58,-0l-31.048,54.22l-36.041,0l-0,-55.191l44.509,-1.142Z" style="fill:#383838;"/><path id="text238" serif:id="text2" d="M2532.16,3271.32l0,4.781l0.009,-0l-31.048,54.22l-93.361,0l-0,-54.22l79.899,-0l-0.154,-4.197c16.675,-0.276 31.405,-0.457 44.655,-0.584Z" style="fill:#383838;"/><path id="text239" serif:id="text2" d="M2487.51,3271.9l-0.071,-1.903c-0.15,-10.392 0.212,-17.019 1.085,-19.881c1.448,-4.669 5.718,-9.413 12.81,-14.232l30.831,-20.333l0,55.765c-13.25,0.127 -27.98,0.308 -44.655,0.584Z" style="fill:#ebebeb;"/><path id="text240" serif:id="text2" d="M2199.31,3269.78l0,-46.77c0,-10.693 3.402,-17.772 10.205,-21.236l33.653,-17.621l0.011,84.449c-17.198,0.323 -31.43,0.73 -43.869,1.178Z" style="fill:#ebebeb;"/><path id="text241" serif:id="text2" d="M2035.62,3276.78c0.289,-8.283 1.737,-15.136 4.342,-20.558c3.908,-7.982 11.29,-14.91 22.146,-20.784c9.409,-4.217 18.817,-8.51 28.226,-12.877l-0,51.574c-14.762,0.282 -32.044,0.45 -53.343,0.45c21.299,-0 38.581,-0.168 53.343,-0.45l-0,1.968l-54.714,0.677Z" style="fill:#ebebeb;"/><path id="text242" serif:id="text2" d="M2123.11,3273.21c-0.022,-4.72 -0.094,-10.006 -0.219,-15.858c-0.15,-7.079 -0.225,-11.673 -0.225,-13.781c0,-11.146 2.461,-18.751 7.382,-22.818c1.593,-1.205 13.968,-7.832 37.128,-19.881l-0,70.29c-14.867,0.724 -28.296,1.451 -44.066,2.048Z" style="fill:#ebebeb;"/><path id="text243" serif:id="text2" d="M2243.18,3268.6l0.005,39.579c0,14.76 -8.25,22.14 -24.751,22.14l-128.535,0c0.29,25.002 -8.323,46.69 -25.837,65.064c-17.37,18.525 -38.068,27.788 -62.096,27.788c-23.304,-0 -43.424,-6.853 -60.359,-20.558c-18.528,-14.911 -27.791,-34.039 -27.791,-57.383c-0,-29.37 9.046,-47.744 27.139,-55.124l4.777,37.954c2.606,14.459 6.803,25.303 12.593,32.532c7.527,9.187 18.527,13.781 33.002,13.781c12.882,-0 23.811,-3.991 32.785,-11.974c8.974,-7.832 13.461,-20.634 13.461,-38.406c0,-4.367 -0.434,-12.35 -1.303,-23.947c-0.723,-10.242 -0.94,-17.998 -0.65,-23.27l54.714,-0.677l32.785,-0c-0,-0.94 -0.003,-1.904 -0.007,-2.893c15.77,-0.597 29.199,-1.324 44.066,-2.048l-0,4.941l32.133,-0l0,-6.321c12.439,-0.448 26.671,-0.855 43.869,-1.178Z" style="fill:#383838;"/><path id="text244" serif:id="text2" d="M1139.67,3284.13l0,-261.961c9.988,6.627 19.903,13.254 29.746,19.881c9.842,8.434 14.764,18.6 14.764,30.499l-0,203.551l22.58,-0l-1.541,2.692c-26.049,2.494 -34.848,3.229 -65.549,5.338Zm7.576,-5.165c4.653,-0.378 9.371,0.378 14.024,0c2.014,-0.164 1.857,-0.21 25.065,-2.838c-23.208,2.628 -23.051,2.674 -25.065,2.838c-4.653,0.378 -9.371,-0.378 -14.024,0Z" style="fill:#ebebeb;"/><path id="text245" serif:id="text2" d="M1205.22,3278.79l-29.507,51.528l-36.042,0l0,-46.19c30.701,-2.109 39.5,-2.844 65.549,-5.338Z" style="fill:#383838;"/><path id="text246" serif:id="text2" d="M1662.71,3157.27l0,117.096c-66.205,-2.805 -71.453,-0.88 -138.257,-0.703c0.85,-29.031 11.908,-53.144 33.171,-72.339c8.106,-7.38 22.002,-11.672 41.687,-12.877c8.274,-0.489 15.513,-1.373 21.718,-2.654m-9.559,42.19c-4.198,-0.904 -7.744,-1.356 -10.639,-1.356c-8.974,-0 -17.08,3.765 -24.317,11.295c-7.237,7.531 -10.856,15.965 -10.856,25.303c-0,2.41 0.29,5.196 0.869,8.359l44.943,0.001l-0,-43.602m9.559,-42.19c9.099,-1.878 15.973,-4.608 20.621,-8.19c7.092,-5.422 14.112,-12.199 21.06,-20.333" style="fill:#ebebeb;"/><path id="text247" serif:id="text2" d="M1662.71,3279.72c-11.541,-0.47 -37.502,-1.46 -144.021,-2.635c106.519,1.175 132.48,2.165 144.021,2.635l0,50.605l-224.718,0l-0,-54.22l86.413,-0c0.008,-0.817 0.024,-1.63 0.048,-2.44c66.804,-0.177 72.052,-2.102 138.257,0.703l0,5.352Z" style="fill:#383838;"/><path id="text248" serif:id="text2" d="M1406.95,3276.1l31.048,-0l-0,54.22l-62.096,0l31.048,-54.22Z" style="fill:#383838;"/><path id="text249" serif:id="text2" d="M1342.8,3273.75c3.116,1.568 6.261,2.352 9.435,2.352l54.714,0.001l-31.048,54.22l-137.871,0l0,-54.22l49.286,-0c-0.318,-0.658 -0.632,-1.311 -0.941,-1.958c22.915,-0.152 41.408,-0.292 56.425,-0.395Z" style="fill:#383838;"/><path id="text250" serif:id="text2" d="M1286.37,3274.14c-10.084,-21.13 -15.125,-36.518 -15.125,-46.162c-0,-14.158 4.776,-25.83 14.329,-35.018c9.264,-8.735 20.771,-13.103 34.522,-13.103c3.908,0 9.771,0.226 17.587,0.677c7.816,0.301 13.678,0.452 17.586,0.452c22.87,0 35.753,-2.184 38.648,-6.551l13.027,-19.43l-0,79.072l-78.814,-0c-4.487,-0 -6.731,2.485 -6.731,7.455c-0,7.38 3.329,14.986 9.987,22.817c3.759,4.328 7.562,7.46 11.409,9.396c-15.017,0.103 -33.51,0.243 -56.425,0.395Z" style="fill:#ebebeb;"/><path id="text251" serif:id="text2" d="M1206.76,3276.1l31.265,-0l0,54.22l-62.313,0l31.048,-54.22Z" style="fill:#383838;"/><path id="text252" serif:id="text2" d="M1028.94,3275.08l-0,-27.673c-0,-4.217 -2.172,-8.057 -6.514,-11.521c-4.198,-3.615 -8.395,-5.422 -12.593,-5.422l-87.499,-0l0,-70.035c3.329,6.025 8.251,11.371 14.764,16.04c7.093,5.121 13.679,7.682 19.758,7.682l72.084,-0c13.027,-0 23.666,4.292 31.916,12.877c8.395,8.585 12.593,19.052 12.593,31.402l0,48.176c-14.306,-1.503 -14.251,-1.577 -15.59,-1.631c-9.628,-0.386 -19.284,0.248 -28.919,0.105Z" style="fill:#ebebeb;"/><path id="text253" serif:id="text2" d="M1073.45,3276.61l0,30.669c0,6.477 -2.026,11.974 -6.079,16.492c-3.909,4.368 -8.975,6.552 -15.199,6.552l-154.805,0l-0,-54.22l131.574,-0l-0,-1.019c9.635,0.143 19.291,-0.491 28.919,-0.105c1.339,0.054 1.284,0.128 15.59,1.631Z" style="fill:#383838;"/></g></svg>